<svg viewBox="0 0 330 390" xmlns="http://www.w3.org/2000/svg" width="330" height="390">

  <defs>
    <!-- Clip everything to the inner circle -->
    <clipPath id="inner-circle">
      <circle cx="165" cy="152" r="122"/>
    </clipPath>
  </defs>

  <!-- ── Indigo fill circle ── -->
  <circle cx="165" cy="152" r="122" fill="#5c6cb3"/>

  <!-- ── Contents clipped to circle ── -->
  <g clip-path="url(#inner-circle)">

    <!-- White face profile (right-facing) -->
    <path fill="white" d="
      M 148 36
      C 108 32, 46 58, 36 112
      C 28 158, 36 208, 60 242
      C 76 264, 96 276, 114 278
      L 125 278
      C 123 260, 120 244, 116 228
      C 112 210, 122 196, 130 186
      C 137 175, 146 165, 146 156
      C 150 148, 158 140, 154 130
      C 152 122, 168 116, 170 110
      C 172 102, 166 90, 157 82
      C 151 75, 150 64, 148 52
      C 147 44, 148 38, 148 36 Z
    "/>

    <!-- Lavender hand (palm-forward, fingers up, center-right) -->
    <!-- Outer silhouette traced from thumb (left) clockwise to pinky (right) then down palm -->
    <path fill="#ad6cad" d="
      M 168 272
      C 165 258, 163 242, 165 226
      C 166 210, 168 196, 170 182
      C 170 166, 168 150, 166 134
      C 165 122, 166 112, 172 108
      C 178 104, 185 108, 186 120
      C 186 134, 185 150, 184 164
      C 184 150, 185 134, 186 120
      C 186 108, 186 98, 192 96
      C 198 94, 203 100, 203 112
      C 203 126, 202 142, 201 158
      C 202 144, 203 128, 205 116
      C 206 105, 211 100, 217 102
      C 222 104, 224 112, 223 124
      C 221 138, 218 154, 217 168
      C 220 156, 222 140, 225 128
      C 227 117, 233 113, 238 116
      C 243 120, 243 130, 240 144
      C 237 158, 232 172, 231 186
      C 234 200, 237 218, 235 235
      C 233 250, 225 264, 214 272 Z
    "/>

  </g>

  <!-- ── Lavender outer ring (drawn over circle edge) ── -->
  <circle cx="165" cy="152" r="128" fill="none" stroke="#ad6cad" stroke-width="7"/>

  <!-- ── "manas" wordmark ── -->
  <text
    x="165" y="336"
    text-anchor="middle"
    font-family="Montserrat, 'Helvetica Neue', Arial, sans-serif"
    font-weight="800"
    font-size="58"
    letter-spacing="-1.5"
    fill="#5c6cb3"
  >manas</text>

</svg>
